<mxfile host="app.diagrams.net" modified="2023-07-25T01:27:04.310Z" agent="Mozilla/5.0 (Macintosh; Intel Mac OS X 10_15_7) AppleWebKit/537.36 (KHTML, like Gecko) Chrome/114.0.0.0 Safari/537.36" etag="OwHqCRiiMWhFk0FSVA2z" version="21.3.8" type="github">
  <diagram name="第 1 页" id="E05Ltvb_8k6aoxSRjsTi">
    <mxGraphModel dx="1930" dy="551" grid="1" gridSize="10" guides="1" tooltips="1" connect="1" arrows="1" fold="1" page="1" pageScale="1" pageWidth="827" pageHeight="1169" math="0" shadow="0">
      <root>
        <mxCell id="0" />
        <mxCell id="1" parent="0" />
        <mxCell id="wpOEHZqx33qmMmasa-VJ-4" value="课件后台" style="shape=umlLifeline;perimeter=lifelinePerimeter;whiteSpace=wrap;html=1;container=1;collapsible=0;recursiveResize=0;outlineConnect=0;rounded=1;shadow=0;comic=0;labelBackgroundColor=none;strokeWidth=1;fontFamily=Verdana;fontSize=12;align=center;" vertex="1" parent="1">
          <mxGeometry x="560" y="80" width="100" height="470" as="geometry" />
        </mxCell>
        <mxCell id="wpOEHZqx33qmMmasa-VJ-32" value="" style="html=1;points=[];perimeter=orthogonalPerimeter;rounded=0;shadow=0;comic=0;labelBackgroundColor=none;strokeWidth=1;fontFamily=Verdana;fontSize=12;align=center;" vertex="1" parent="wpOEHZqx33qmMmasa-VJ-4">
          <mxGeometry x="45" y="260" width="10" height="40" as="geometry" />
        </mxCell>
        <mxCell id="wpOEHZqx33qmMmasa-VJ-36" value="" style="html=1;points=[];perimeter=orthogonalPerimeter;rounded=0;shadow=0;comic=0;labelBackgroundColor=none;strokeWidth=1;fontFamily=Verdana;fontSize=12;align=center;" vertex="1" parent="wpOEHZqx33qmMmasa-VJ-4">
          <mxGeometry x="45" y="380" width="10" height="40" as="geometry" />
        </mxCell>
        <mxCell id="wpOEHZqx33qmMmasa-VJ-9" value="课件编辑器" style="shape=umlLifeline;perimeter=lifelinePerimeter;whiteSpace=wrap;html=1;container=1;collapsible=0;recursiveResize=0;outlineConnect=0;rounded=1;shadow=0;comic=0;labelBackgroundColor=none;strokeWidth=1;fontFamily=Verdana;fontSize=12;align=center;" vertex="1" parent="1">
          <mxGeometry x="240" y="80" width="100" height="470" as="geometry" />
        </mxCell>
        <mxCell id="wpOEHZqx33qmMmasa-VJ-5" value="" style="html=1;points=[];perimeter=orthogonalPerimeter;rounded=0;shadow=0;comic=0;labelBackgroundColor=none;strokeWidth=1;fontFamily=Verdana;fontSize=12;align=center;" vertex="1" parent="wpOEHZqx33qmMmasa-VJ-9">
          <mxGeometry x="45" y="220" width="10" height="240" as="geometry" />
        </mxCell>
        <mxCell id="wpOEHZqx33qmMmasa-VJ-34" value="编辑课件" style="html=1;verticalAlign=bottom;endArrow=block;labelBackgroundColor=none;fontFamily=Verdana;fontSize=12;edgeStyle=elbowEdgeStyle;elbow=vertical;entryX=-0.209;entryY=0;entryDx=0;entryDy=0;entryPerimeter=0;" edge="1" parent="wpOEHZqx33qmMmasa-VJ-9">
          <mxGeometry x="-0.0019" relative="1" as="geometry">
            <mxPoint x="-105" y="340" as="sourcePoint" />
            <Array as="points">
              <mxPoint x="-48.41000000000008" y="340" />
              <mxPoint x="-38.41000000000008" y="400" />
              <mxPoint x="1.5899999999999181" y="410" />
              <mxPoint x="-18.410000000000082" y="370" />
              <mxPoint x="-98.41000000000003" y="260" />
            </Array>
            <mxPoint x="45" y="340" as="targetPoint" />
            <mxPoint as="offset" />
          </mxGeometry>
        </mxCell>
        <mxCell id="wpOEHZqx33qmMmasa-VJ-13" value="对接业务后台" style="shape=umlLifeline;perimeter=lifelinePerimeter;whiteSpace=wrap;html=1;container=1;collapsible=0;recursiveResize=0;outlineConnect=0;rounded=1;shadow=0;comic=0;labelBackgroundColor=none;strokeWidth=1;fontFamily=Verdana;fontSize=12;align=center;" vertex="1" parent="1">
          <mxGeometry x="400" y="80" width="100" height="470" as="geometry" />
        </mxCell>
        <mxCell id="wpOEHZqx33qmMmasa-VJ-10" value="" style="html=1;points=[];perimeter=orthogonalPerimeter;rounded=0;shadow=0;comic=0;labelBackgroundColor=none;strokeWidth=1;fontFamily=Verdana;fontSize=12;align=center;" vertex="1" parent="wpOEHZqx33qmMmasa-VJ-13">
          <mxGeometry x="45" y="100" width="10" height="120" as="geometry" />
        </mxCell>
        <mxCell id="wpOEHZqx33qmMmasa-VJ-35" value="课件保存" style="html=1;verticalAlign=bottom;endArrow=block;labelBackgroundColor=none;fontFamily=Verdana;fontSize=12;edgeStyle=elbowEdgeStyle;elbow=vertical;" edge="1" parent="wpOEHZqx33qmMmasa-VJ-13">
          <mxGeometry x="-0.0019" relative="1" as="geometry">
            <mxPoint x="-105" y="380" as="sourcePoint" />
            <Array as="points">
              <mxPoint x="-46.41000000000008" y="380" />
              <mxPoint x="-36.41000000000008" y="440" />
              <mxPoint x="3.589999999999918" y="450" />
              <mxPoint x="-16.410000000000082" y="410" />
              <mxPoint x="-96.41000000000003" y="300" />
            </Array>
            <mxPoint x="205" y="380" as="targetPoint" />
            <mxPoint as="offset" />
          </mxGeometry>
        </mxCell>
        <mxCell id="wpOEHZqx33qmMmasa-VJ-22" value="用户" style="shape=umlLifeline;perimeter=lifelinePerimeter;whiteSpace=wrap;html=1;container=1;collapsible=0;recursiveResize=0;outlineConnect=0;rounded=1;shadow=0;comic=0;labelBackgroundColor=none;strokeWidth=1;fontFamily=Verdana;fontSize=12;align=center;" vertex="1" parent="1">
          <mxGeometry x="80" y="80" width="100" height="470" as="geometry" />
        </mxCell>
        <mxCell id="wpOEHZqx33qmMmasa-VJ-23" value="" style="html=1;points=[];perimeter=orthogonalPerimeter;rounded=0;shadow=0;comic=0;labelBackgroundColor=none;strokeWidth=1;fontFamily=Verdana;fontSize=12;align=center;" vertex="1" parent="wpOEHZqx33qmMmasa-VJ-22">
          <mxGeometry x="45" y="100" width="10" height="360" as="geometry" />
        </mxCell>
        <mxCell id="wpOEHZqx33qmMmasa-VJ-24" value="课件API" style="shape=umlLifeline;perimeter=lifelinePerimeter;whiteSpace=wrap;html=1;container=1;collapsible=0;recursiveResize=0;outlineConnect=0;rounded=1;shadow=0;comic=0;labelBackgroundColor=none;strokeWidth=1;fontFamily=Verdana;fontSize=12;align=center;" vertex="1" parent="1">
          <mxGeometry x="720" y="80" width="100" height="470" as="geometry" />
        </mxCell>
        <mxCell id="wpOEHZqx33qmMmasa-VJ-25" value="" style="html=1;points=[];perimeter=orthogonalPerimeter;rounded=0;shadow=0;comic=0;labelBackgroundColor=none;strokeWidth=1;fontFamily=Verdana;fontSize=12;align=center;" vertex="1" parent="wpOEHZqx33qmMmasa-VJ-24">
          <mxGeometry x="45" y="140" width="10" height="40" as="geometry" />
        </mxCell>
        <mxCell id="wpOEHZqx33qmMmasa-VJ-26" value="创建课件" style="html=1;verticalAlign=bottom;endArrow=block;entryX=0;entryY=0;labelBackgroundColor=none;fontFamily=Verdana;fontSize=12;edgeStyle=elbowEdgeStyle;elbow=vertical;" edge="1" parent="1" source="wpOEHZqx33qmMmasa-VJ-23" target="wpOEHZqx33qmMmasa-VJ-10">
          <mxGeometry relative="1" as="geometry">
            <mxPoint x="220" y="190" as="sourcePoint" />
          </mxGeometry>
        </mxCell>
        <mxCell id="wpOEHZqx33qmMmasa-VJ-27" value="返回" style="html=1;verticalAlign=bottom;endArrow=open;dashed=1;endSize=8;labelBackgroundColor=none;fontFamily=Verdana;fontSize=12;edgeStyle=elbowEdgeStyle;elbow=vertical;" edge="1" parent="1">
          <mxGeometry relative="1" as="geometry">
            <mxPoint x="295" y="380" as="targetPoint" />
            <Array as="points" />
            <mxPoint x="605" y="380" as="sourcePoint" />
          </mxGeometry>
        </mxCell>
        <mxCell id="wpOEHZqx33qmMmasa-VJ-28" value="创建课件(&lt;font color=&quot;#ff3333&quot;&gt;groupcode,AK,SK,user...&lt;/font&gt;)" style="html=1;verticalAlign=bottom;endArrow=block;labelBackgroundColor=none;fontFamily=Verdana;fontSize=12;edgeStyle=elbowEdgeStyle;elbow=vertical;" edge="1" parent="1">
          <mxGeometry relative="1" as="geometry">
            <mxPoint x="455" y="220" as="sourcePoint" />
            <mxPoint x="765" y="220" as="targetPoint" />
          </mxGeometry>
        </mxCell>
        <mxCell id="wpOEHZqx33qmMmasa-VJ-29" value="返回(课件ID，编辑地址)" style="html=1;verticalAlign=bottom;endArrow=open;dashed=1;endSize=8;labelBackgroundColor=none;fontFamily=Verdana;fontSize=12;edgeStyle=elbowEdgeStyle;elbow=vertical;" edge="1" parent="1">
          <mxGeometry relative="1" as="geometry">
            <mxPoint x="455" y="260" as="targetPoint" />
            <Array as="points" />
            <mxPoint x="765" y="260" as="sourcePoint" />
            <mxPoint as="offset" />
          </mxGeometry>
        </mxCell>
        <mxCell id="wpOEHZqx33qmMmasa-VJ-11" value="打开编辑器" style="html=1;verticalAlign=bottom;endArrow=open;dashed=1;endSize=8;labelBackgroundColor=none;fontFamily=Verdana;fontSize=12;edgeStyle=elbowEdgeStyle;elbow=vertical;" edge="1" parent="1">
          <mxGeometry relative="1" as="geometry">
            <mxPoint x="295" y="299.69000000000005" as="targetPoint" />
            <Array as="points" />
            <mxPoint x="445" y="299.69000000000005" as="sourcePoint" />
            <mxPoint as="offset" />
          </mxGeometry>
        </mxCell>
        <mxCell id="wpOEHZqx33qmMmasa-VJ-12" value="读取课件信息，配置" style="html=1;verticalAlign=bottom;endArrow=block;labelBackgroundColor=none;fontFamily=Verdana;fontSize=12;edgeStyle=elbowEdgeStyle;elbow=vertical;" edge="1" parent="1">
          <mxGeometry x="-0.0009" relative="1" as="geometry">
            <mxPoint x="295" y="340" as="sourcePoint" />
            <mxPoint x="605" y="340" as="targetPoint" />
            <mxPoint as="offset" />
          </mxGeometry>
        </mxCell>
        <mxCell id="wpOEHZqx33qmMmasa-VJ-37" value="返回" style="html=1;verticalAlign=bottom;endArrow=open;dashed=1;endSize=8;labelBackgroundColor=none;fontFamily=Verdana;fontSize=12;edgeStyle=elbowEdgeStyle;elbow=vertical;exitX=-0.17;exitY=1.002;exitDx=0;exitDy=0;exitPerimeter=0;" edge="1" parent="1">
          <mxGeometry x="0.0031" relative="1" as="geometry">
            <mxPoint x="295" y="500" as="targetPoint" />
            <Array as="points">
              <mxPoint x="571.54" y="499.9999999999999" />
              <mxPoint x="541.54" y="499.9999999999999" />
            </Array>
            <mxPoint x="605" y="500" as="sourcePoint" />
            <mxPoint as="offset" />
          </mxGeometry>
        </mxCell>
        <mxCell id="wpOEHZqx33qmMmasa-VJ-38" value="返回" style="html=1;verticalAlign=bottom;endArrow=open;dashed=1;endSize=8;labelBackgroundColor=none;fontFamily=Verdana;fontSize=12;edgeStyle=elbowEdgeStyle;elbow=vertical;" edge="1" parent="1">
          <mxGeometry x="0.0031" relative="1" as="geometry">
            <mxPoint x="135" y="540" as="targetPoint" />
            <Array as="points">
              <mxPoint x="180" y="540" />
              <mxPoint x="325.53999999999996" y="539.9999999999999" />
            </Array>
            <mxPoint x="285" y="540" as="sourcePoint" />
            <mxPoint as="offset" />
          </mxGeometry>
        </mxCell>
        <mxCell id="wpOEHZqx33qmMmasa-VJ-39" value="" style="rounded=0;whiteSpace=wrap;html=1;" vertex="1" parent="1">
          <mxGeometry x="-50" y="190" width="120" height="60" as="geometry" />
        </mxCell>
      </root>
    </mxGraphModel>
  </diagram>
</mxfile>
